<svg width="60" height="48" viewBox="0 0 60 48" fill="none" xmlns="http://www.w3.org/2000/svg">
<path d="M7.46421 45.2352C3.4908 46.0588 1 45.8823 1 45.8823C1 45.8823 7.15639 46.9949 11.1411 46.9999C15.1719 47.005 17.4686 46.7611 21.4008 45.8823L21.5062 45.8587C24.5499 45.1786 26.3376 44.7791 29.1697 43.4117C32.1502 41.9727 33.6303 40.7626 36.1677 38.647C39.3413 36.001 43.4029 30.9411 43.4029 30.9411C43.4029 30.9411 47.1626 27.1254 50.2229 25.7647C53.4023 24.351 59 24.1764 59 24.1764C59 24.1764 56.0019 23.249 54.0184 23.1764C52.2727 23.1126 49.274 23.647 49.274 23.647C49.274 23.647 47.4949 21.0588 46.0716 20.2941C44.6483 19.5294 43.3463 19.39 42.0982 19.5294C39.9264 19.7719 38.5992 20.5882 37.2352 22.1764C35.8712 23.7647 34.3292 25.7647 34.3292 25.7647C34.3292 25.7647 31.8978 23.5294 30.8303 21.0588C29.7628 18.5882 28.2802 15.9412 27.272 12.2353C26.2638 8.5294 25.7894 2 25.7894 2C25.7894 2 18.9693 10.5882 17.6646 12.7059C16.3599 14.8235 15.2331 17.4117 15.2331 22.1764C15.2331 26.9411 15.7669 28.7647 16.8937 31.5294C18.0205 34.2941 21.4008 39.2941 21.4008 39.2941C21.4008 39.2941 16.4785 42.4705 13.8098 43.4117C11.1411 44.3529 11.4376 44.4117 7.46421 45.2352Z" fill="#C9B4A1" stroke="#C9B4A1"/>
</svg>
